<?xml version="1.0" encoding="UTF-8" standalone="no"?>
<!-- Created with Inkscape (http://www.inkscape.org/) -->

<svg
   xmlns:dc="http://purl.org/dc/elements/1.1/"
   xmlns:cc="http://creativecommons.org/ns#"
   xmlns:rdf="http://www.w3.org/1999/02/22-rdf-syntax-ns#"
   xmlns:svg="http://www.w3.org/2000/svg"
   xmlns="http://www.w3.org/2000/svg"
   version="1.1"
   width="312.89139"
   height="83.130257"
   id="svg2"
   xml:space="preserve"><metadata
     id="metadata8"><rdf:RDF><cc:Work
         rdf:about=""><dc:format>image/svg+xml</dc:format><dc:type
           rdf:resource="http://purl.org/dc/dcmitype/StillImage" /><dc:title></dc:title></cc:Work></rdf:RDF></metadata><defs
     id="defs6"><clipPath
       id="clipPath18"><path
         d="m 980.316,2554.91 391.534,0 0,326.37 -326.4,0 c -36.05,0 -65.278,-29.22 -65.278,-65.27 0,-36.05 29.228,-65.28 65.278,-65.28 l 130.56,0 0,-65.27 -130.42,0 c -72.102,0 -130.699,58.45 -130.699,130.55 0,72.1 58.453,130.54 130.559,130.54 l 326.4,0 0,130.56 -391.678,0 c -144.215,0 -261.117,-116.9 -261.117,-261.1 0,-144.21 117.047,-261.1 261.261,-261.1 z m 456.814,0 195.83,0 0,195.82 46.86,0 195.84,-195.82 251.11,0 -223.48,195.82 23.43,0 c 90.14,0 163.2,73.06 163.2,163.19 0,90.13 -72.92,163.19 -163.05,163.19 l -489.74,0 0,-130.56 424.46,0 c 18.02,0 32.49,-14.6 32.49,-32.63 0,-18.03 -14.61,-32.64 -32.64,-32.64 l -424.31,0 0,-326.37 z m 932.48,0 204.76,0 c 144.21,0 261.26,116.89 261.26,261.1 0,144.2 -116.9,261.1 -261.12,261.1 l -205.05,0 c -96.65,0 -181.04,-52.51 -226.19,-130.56 l 365.96,0 c 72.11,0 130.56,-58.44 130.56,-130.54 0,-72.1 -58.59,-130.55 -130.7,-130.55 l -64.99,0 c -72.11,0 -139.92,58.45 -139.92,130.55 0,23.78 6.36,46.07 17.47,65.27 l -205.08,0 c -5.37,-20.86 -8.23,-42.74 -8.23,-65.27 0,-144.21 117.05,-261.1 261.27,-261.1 z m 503.66,0 195.84,0 0,233.47 233.48,-233.47 251.11,0 -297.96,261.1 297.96,261.1 -251.11,0 -233.48,-233.47 0,233.47 -195.84,0 163.19,-163.2 -163.19,-163.18 0,-195.82 z"
         id="path20" /></clipPath><linearGradient
       x1="-26.355499"
       y1="0"
       x2="26.355499"
       y2="0"
       id="linearGradient22"
       gradientUnits="userSpaceOnUse"
       gradientTransform="matrix(0,1,-1,0,213.638,281.355)"><stop
         id="stop24"
         style="stop-color:#f1471d;stop-opacity:1"
         offset="0" /><stop
         id="stop26"
         style="stop-color:#f89c0e;stop-opacity:1"
         offset="0.75781298" /><stop
         id="stop28"
         style="stop-color:#f89c0e;stop-opacity:1"
         offset="1" /></linearGradient><clipPath
       id="clipPath42"><path
         d="m 1442.75,558.051 234.92,0 0,195.812 -195.84,0 c -21.63,0 -39.16,-17.535 -39.16,-39.164 0,-21.625 17.53,-39.16 39.16,-39.16 l 78.34,0 0,-39.164 -78.25,0 c -43.26,0 -78.42,35.07 -78.42,78.324 0,43.258 35.07,78.324 78.33,78.324 l 195.84,0 0,78.325 -235,0 c -86.53,0 -156.67,-70.129 -156.67,-156.649 0,-86.515 70.23,-156.648 156.75,-156.648 z m 274.09,0 117.5,0 0,117.488 28.11,0 117.5,-117.488 150.66,0 -134.08,117.488 14.06,0 c 54.07,0 97.91,43.832 97.91,97.902 0,54.075 -43.75,97.907 -97.83,97.907 l -293.83,0 0,-78.325 254.67,0 c 10.81,0 19.49,-8.765 19.49,-19.582 0,-10.812 -8.77,-19.578 -19.58,-19.578 l -254.58,0 0,-195.812 z m 559.47,0 122.86,0 c 86.53,0 156.75,70.133 156.75,156.648 0,86.52 -70.14,156.649 -156.67,156.649 l -123.02,0 c -58,0 -108.62,-31.5 -135.71,-78.325 l 219.57,0 c 43.26,0 78.33,-35.066 78.33,-78.324 0,-43.254 -35.16,-78.324 -78.42,-78.324 l -39,0 c -43.26,0 -83.94,35.07 -83.94,78.324 0,14.27 3.82,27.645 10.48,39.164 l -123.05,0 c -3.22,-12.515 -4.93,-25.64 -4.93,-39.164 0,-86.515 70.23,-156.648 156.75,-156.648 z m 302.2,0 117.5,0 0,140.07 140.08,-140.07 150.66,0 -178.77,156.648 178.77,156.649 -150.66,0 -140.08,-140.071 0,140.071 -117.5,0 97.9,-97.907 -97.9,-97.906 0,-117.484 z"
         id="path44" /></clipPath><linearGradient
       x1="-16.0674"
       y1="0"
       x2="16.0674"
       y2="0"
       id="linearGradient46"
       gradientUnits="userSpaceOnUse"
       gradientTransform="matrix(0,1,-1,0,213.637,71.0674)"><stop
         id="stop48"
         style="stop-color:#f1471d;stop-opacity:1"
         offset="0" /><stop
         id="stop50"
         style="stop-color:#f89c0e;stop-opacity:1"
         offset="0.75781298" /><stop
         id="stop52"
         style="stop-color:#f89c0e;stop-opacity:1"
         offset="1" /></linearGradient></defs><g
     transform="matrix(1.25,0,0,-1.25,-141.69925,339.74832)"
     id="g10"><g
       transform="scale(0.1,0.1)"
       id="g12"><g
         transform="matrix(0.88304923,0,0,0.88304923,498.63301,0.74692012)"
         id="g14"><g
           clip-path="url(#clipPath18)"
           id="g16"><path
             d="m 980.316,2554.91 391.534,0 0,326.37 -326.4,0 c -36.05,0 -65.278,-29.22 -65.278,-65.27 0,-36.05 29.228,-65.28 65.278,-65.28 l 130.56,0 0,-65.27 -130.42,0 c -72.102,0 -130.699,58.45 -130.699,130.55 0,72.1 58.453,130.54 130.559,130.54 l 326.4,0 0,130.56 -391.678,0 c -144.215,0 -261.117,-116.9 -261.117,-261.1 0,-144.21 117.047,-261.1 261.261,-261.1 z m 456.814,0 195.83,0 0,195.82 46.86,0 195.84,-195.82 251.11,0 -223.48,195.82 23.43,0 c 90.14,0 163.2,73.06 163.2,163.19 0,90.13 -72.92,163.19 -163.05,163.19 l -489.74,0 0,-130.56 424.46,0 c 18.02,0 32.49,-14.6 32.49,-32.63 0,-18.03 -14.61,-32.64 -32.64,-32.64 l -424.31,0 0,-326.37 z m 932.48,0 204.76,0 c 144.21,0 261.26,116.89 261.26,261.1 0,144.2 -116.9,261.1 -261.12,261.1 l -205.05,0 c -96.65,0 -181.04,-52.51 -226.19,-130.56 l 365.96,0 c 72.11,0 130.56,-58.44 130.56,-130.54 0,-72.1 -58.59,-130.55 -130.7,-130.55 l -64.99,0 c -72.11,0 -139.92,58.45 -139.92,130.55 0,23.78 6.36,46.07 17.47,65.27 l -205.08,0 c -5.37,-20.86 -8.23,-42.74 -8.23,-65.27 0,-144.21 117.05,-261.1 261.27,-261.1 z m 503.66,0 195.84,0 0,233.47 233.48,-233.47 251.11,0 -297.96,261.1 297.96,261.1 -251.11,0 -233.48,-233.47 0,233.47 -195.84,0 163.19,-163.2 -163.19,-163.18 0,-195.82"
             id="path30"
             style="fill:url(#linearGradient22);fill-opacity:1;fill-rule:nonzero;stroke:none" /></g></g><path
         d="m 3112.0084,2052.9445 -85.0023,146.9747 39.0925,0 59.5441,-106.2308 56.7535,106.2308 34.0857,0 -80.8255,-146.9747 z m -159.205,0 0,146.9747 34.1917,0 0,-146.9747 z m -109.9131,120.7746 0,-120.7746 -34.1917,0 0,120.7746 -67.5267,0 0,26.2001 169.5277,0 0,-26.2001 z m -173.4132,0 -92.3228,0 0,-93.144 92.3228,0 0,31.622 34.1828,-7.1085 0,-17.4138 c 0,-13.4223 -2.5255,-22.5707 -7.5677,-27.4363 -5.0511,-4.8568 -14.6675,-7.294 -28.8492,-7.294 l -87.8634,0 c -14.2701,0 -23.9042,2.4372 -28.9111,7.294 -4.998,4.8656 -7.497,14.014 -7.497,27.4363 l 0,77.5229 c 0,13.3341 2.499,22.456 7.497,27.3569 5.0069,4.9097 14.641,7.3646 28.9111,7.3646 l 87.8634,0 c 14.1817,0 23.7981,-2.4549 28.8492,-7.3646 5.0422,-4.9009 7.5677,-14.0228 7.5677,-27.3569 l 0,-13.9522 -34.1828,-5.4484 z m -366.1211,-120.7746 83.2451,146.9747 32.9907,0 84.3489,-146.9747 -38.4215,0 -17.6786,32.1871 -93.2589,0 -17.1223,-32.1871 z m 65.8402,58.6786 64.4538,0 -31.7368,59.7913 z m -256.6406,-58.6786 0,146.9747 125.6667,0 c 11.7093,0 20.1954,-2.2429 25.4495,-6.7288 5.2453,-4.4771 7.868,-11.7093 7.868,-21.6877 l 0,-34.5979 c 0,-9.8901 -2.6227,-17.0958 -7.868,-21.6259 -5.2541,-4.53 -13.7402,-6.7906 -25.4495,-6.7906 l -19.1886,0 67.9594,-55.5438 -49.124,0 -59.2703,55.5438 -32.4167,0 0,-55.5438 z m 110.5048,121.6224 -76.8783,0 0,-41.0088 76.8783,0 c 5.9341,0 9.9873,0.8565 12.1684,2.5785 2.1723,1.7219 3.2673,4.7684 3.2673,9.1307 l 0,17.7228 c 0,4.2828 -1.095,7.2763 -3.2673,8.9983 -2.1811,1.7219 -6.2343,2.5785 -12.1684,2.5785 z m -325.5008,-121.6224 0,146.9747 150.4363,0 0,-25.0609 -116.2535,0 0,-32.7611 67.8182,0 0,-25.061 -67.8182,0 0,-36.4611 117.6752,0 0,-27.6306 z m -109.9131,120.7746 0,-120.7746 -34.2005,0 0,120.7746 -67.518,0 0,26.2001 169.5278,0 0,-26.2001 z m -316.2994,-120.7746 0,146.9747 23.3654,0 120.2007,-102.6103 -1.3952,102.6103 30.7742,0 0,-146.9747 -23.3743,0 -120.1918,102.7604 1.3864,-102.7604 z m -109.2571,0 0,146.9747 34.1979,0 0,-146.9747 z m 1894.2704,0 0,146.9747 150.4451,0 0,-25.0609 -116.2534,0 0,-32.7611 67.8182,0 0,-25.061 -67.8182,0 0,-36.4611 117.6751,0 0,-27.6306 z m -220.4885,607.3878 86.4593,-86.4594 -86.4593,-86.4593 0,172.9187"
         id="path32"
         style="fill:#7b7979;fill-opacity:1;fill-rule:evenodd;stroke:none" /></g></g></svg>